<?xml version="1.0" encoding="UTF-8" standalone="no"?>
<!-- Created with Inkscape (http://www.inkscape.org/) -->

<svg
   width="143.7545mm"
   height="64.275688mm"
   viewBox="0 0 509.36634 227.7485"
   id="svg7212"
   version="1.1"
   inkscape:version="1.2.2 (b0a8486541, 2022-12-01)"
   sodipodi:docname="FLISoL-branco.svg"
   xmlns:inkscape="http://www.inkscape.org/namespaces/inkscape"
   xmlns:sodipodi="http://sodipodi.sourceforge.net/DTD/sodipodi-0.dtd"
   xmlns:xlink="http://www.w3.org/1999/xlink"
   xmlns="http://www.w3.org/2000/svg"
   xmlns:svg="http://www.w3.org/2000/svg"
   xmlns:rdf="http://www.w3.org/1999/02/22-rdf-syntax-ns#"
   xmlns:cc="http://creativecommons.org/ns#"
   xmlns:dc="http://purl.org/dc/elements/1.1/">
  <title
     id="title7546">Flisol</title>
  <defs
     id="defs7214">
    <radialGradient
       inkscape:collect="always"
       xlink:href="#linearGradient11737"
       id="radialGradient20235"
       gradientUnits="userSpaceOnUse"
       cx="339.39481"
       cy="170.44995"
       fx="339.39481"
       fy="170.44995"
       r="68.636078" />
    <linearGradient
       id="linearGradient11737">
      <stop
         id="stop11739"
         offset="0"
         style="stop-color:#ffffff;stop-opacity:0;" />
      <stop
         style="stop-color:#0046af;stop-opacity:0;"
         offset="0.7044031"
         id="stop11741" />
      <stop
         style="stop-color:#0044ab;stop-opacity:0.42352942;"
         offset="0.86842364"
         id="stop11743" />
      <stop
         id="stop11745"
         offset="0.95386213"
         style="stop-color:#003996;stop-opacity:0.64999998;" />
      <stop
         id="stop11747"
         offset="1"
         style="stop-color:#002c80;stop-opacity:1;" />
    </linearGradient>
    <radialGradient
       inkscape:collect="always"
       xlink:href="#linearGradient11729"
       id="radialGradient20237"
       gradientUnits="userSpaceOnUse"
       gradientTransform="matrix(2.0322283,0,0,2.0322283,-350.33294,-138.65768)"
       cx="360.3381"
       cy="131.75188"
       fx="360.3381"
       fy="131.75188"
       r="68.136078" />
    <linearGradient
       id="linearGradient11729">
      <stop
         style="stop-color:#5bcaff;stop-opacity:1;"
         offset="0"
         id="stop11731" />
      <stop
         style="stop-color:#0071de;stop-opacity:1;"
         offset="1"
         id="stop11733" />
    </linearGradient>
    <filter
       inkscape:collect="always"
       id="filter4645"
       x="-0.16"
       width="1.32"
       y="-0.16"
       height="1.32">
      <feGaussianBlur
         inkscape:collect="always"
         stdDeviation="9.0848104"
         id="feGaussianBlur4647" />
    </filter>
    <filter
       id="filter15293"
       inkscape:collect="always"
       x="-0.10819634"
       y="-0.075850782"
       width="1.21636"
       height="1.1526797">
      <feGaussianBlur
         id="feGaussianBlur15295"
         stdDeviation="2.6999294"
         inkscape:collect="always" />
    </filter>
    <linearGradient
       inkscape:collect="always"
       xlink:href="#linearGradient5073"
       id="linearGradient20239"
       gradientUnits="userSpaceOnUse"
       gradientTransform="matrix(-0.70212229,-0.41616513,-0.24563742,0.64033837,1757.0439,1465.4203)"
       x1="530.65643"
       y1="92.872658"
       x2="571.87354"
       y2="138.7977" />
    <linearGradient
       id="linearGradient5073">
      <stop
         style="stop-color:#ffffff;stop-opacity:1;"
         offset="0"
         id="stop5075" />
      <stop
         style="stop-color:#ffffff;stop-opacity:0;"
         offset="1"
         id="stop5077" />
    </linearGradient>
  </defs>
  <sodipodi:namedview
     id="base"
     pagecolor="#ffffff"
     bordercolor="#666666"
     borderopacity="1.0"
     inkscape:pageopacity="0.0"
     inkscape:pageshadow="2"
     inkscape:zoom="1.4"
     inkscape:cx="324.64285"
     inkscape:cy="162.5"
     inkscape:document-units="px"
     inkscape:current-layer="layer1"
     showgrid="false"
     fit-margin-top="0"
     fit-margin-left="0"
     fit-margin-right="0"
     fit-margin-bottom="0"
     inkscape:window-width="1920"
     inkscape:window-height="983"
     inkscape:window-x="0"
     inkscape:window-y="0"
     inkscape:window-maximized="1"
     inkscape:showpageshadow="2"
     inkscape:pagecheckerboard="0"
     inkscape:deskcolor="#d1d1d1" />
  <metadata
     id="metadata7217">
    <rdf:RDF>
      <cc:Work
         rdf:about="">
        <dc:format>image/svg+xml</dc:format>
        <dc:type
           rdf:resource="http://purl.org/dc/dcmitype/StillImage" />
        <dc:title>Flisol</dc:title>
        <cc:license
           rdf:resource="http://creativecommons.org/licenses/by/3.0/" />
        <dc:date>5/febrero/2015</dc:date>
        <dc:creator>
          <cc:Agent>
            <dc:title>Xavier Araque</dc:title>
          </cc:Agent>
        </dc:creator>
        <dc:rights>
          <cc:Agent>
            <dc:title>CC</dc:title>
          </cc:Agent>
        </dc:rights>
        <dc:publisher>
          <cc:Agent>
            <dc:title>Inkscape</dc:title>
          </cc:Agent>
        </dc:publisher>
        <dc:source>Flisol</dc:source>
        <dc:language>ES</dc:language>
        <dc:subject>
          <rdf:Bag>
            <rdf:li>Logo Flisol 2015</rdf:li>
          </rdf:Bag>
        </dc:subject>
        <dc:description>Logo realizado para el refrescamiento del Flisol 2015

https://www.loomio.org/d/dWQYBfTA/votacion-logo</dc:description>
      </cc:Work>
      <cc:License
         rdf:about="http://creativecommons.org/licenses/by/3.0/">
        <cc:permits
           rdf:resource="http://creativecommons.org/ns#Reproduction" />
        <cc:permits
           rdf:resource="http://creativecommons.org/ns#Distribution" />
        <cc:requires
           rdf:resource="http://creativecommons.org/ns#Notice" />
        <cc:requires
           rdf:resource="http://creativecommons.org/ns#Attribution" />
        <cc:permits
           rdf:resource="http://creativecommons.org/ns#DerivativeWorks" />
      </cc:License>
    </rdf:RDF>
  </metadata>
  <g
     inkscape:label="Capa 1"
     inkscape:groupmode="layer"
     id="layer1"
     transform="translate(-151.03118,-252.14253)">
    <g
       transform="matrix(0.90573228,0,0,0.90573228,-664.47846,-844.84021)"
       id="g20107">
      <path
         sodipodi:nodetypes="cccccccccccccccccccc"
         style="color:#000000;display:inline;overflow:visible;visibility:visible;fill:#ffffff;fill-opacity:1;fill-rule:nonzero;stroke:none;stroke-width:2.59126377;marker:none;enable-background:accumulate"
         d="m 1298.8819,1323.1321 -48.7309,-48.4378 -28.5637,26.4018 23.8704,22.6029 15.9396,-15.5149 -11.1295,-10.6669 -13.5053,10.2568 -1.1593,-1.1669 11.4957,-11.977 c 1.7249,-1.7291 3.6099,-2.2914 5.8319,-0.3989 l 11.5745,11.1743 c 1.3851,1.7362 1.6911,3.4408 0.5451,5.1029 0,0 -7.005,9.3261 -16.6236,17.7401 -2.9987,2.1967 -5.6051,1.6537 -7.9717,-0.564 l -25.4373,-22.151 c -2.3484,-2.6921 -1.8467,-6.0636 0.6079,-8.5762 l 29.2542,-31.2085 c 2.7645,-3.2037 9.1831,-2.9987 11.9686,0.097 l 51.0113,48.784 z"
         id="path20109"
         inkscape:connector-curvature="0" />
      <path
         sodipodi:nodetypes="ccsccc"
         inkscape:connector-curvature="0"
         id="path20115"
         d="m 1272.8575,1337.4177 -50.7248,4.5281 c 0,0 2.4921,12.308 -4.5996,11.237 -7.0917,-1.0709 -2.5579,-16.7977 -2.5579,-16.7977 l 58.2093,-2.0192 z"
         style="color:#000000;display:inline;overflow:visible;visibility:visible;fill:#ffffff;fill-opacity:1;fill-rule:nonzero;stroke:none;stroke-width:2.59126377;marker:none;enable-background:accumulate" />
      <ellipse
         ry="7.0285716"
         rx="4.8000002"
         cy="505.67648"
         cx="-148.45714"
         transform="matrix(0.95103732,0.44634623,-0.44634623,0.95103732,1617.6646,933.28897)"
         id="path20121"
         style="color:#000000;display:inline;overflow:visible;visibility:visible;fill:#ffffff;fill-opacity:1;fill-rule:nonzero;stroke:none;stroke-width:2.59126377;marker:none;enable-background:accumulate" />
      <ellipse
         ry="7.0285716"
         rx="4.8000002"
         cy="505.67648"
         cx="-148.45714"
         style="color:#000000;display:inline;overflow:visible;visibility:visible;fill:#ffffff;fill-opacity:1;fill-rule:nonzero;stroke:none;stroke-width:2.59126377;marker:none;enable-background:accumulate"
         id="path20123"
         transform="matrix(0.95103732,0.44634623,-0.44634623,0.95103732,1603.9446,938.66548)" />
      <path
         inkscape:connector-curvature="0"
         id="path20129"
         d="m 1325.4465,1351.5525 48.731,48.4378 28.5637,-26.4019 -23.8704,-22.6028 -15.9396,15.5148 11.1294,10.667 13.5053,-10.2568 1.1594,1.1668 -11.4958,11.977 c -1.7248,1.7291 -3.6099,2.2914 -5.8318,0.3989 l -11.5745,-11.1742 c -1.3852,-1.7363 -1.6911,-3.4408 -0.5451,-5.1029 0,0 7.005,-9.3262 16.6235,-17.7402 2.9987,-2.1967 5.6052,-1.6536 7.9717,0.5641 l 25.4373,22.1509 c 2.3484,2.6921 1.8467,6.0636 -0.6079,8.5762 l -29.2542,31.2085 c -2.7645,3.2037 -9.1831,2.9988 -11.9686,-0.097 l -51.0113,-48.7841 z"
         style="color:#000000;display:inline;overflow:visible;visibility:visible;fill:#ffffff;fill-opacity:1;fill-rule:nonzero;stroke:none;stroke-width:2.59126377;marker:none;enable-background:accumulate"
         sodipodi:nodetypes="cccccccccccccccccccc" />
      <path
         style="color:#000000;display:inline;overflow:visible;visibility:visible;fill:#ffffff;fill-opacity:1;fill-rule:nonzero;stroke:none;stroke-width:2.59126377;marker:none;enable-background:accumulate"
         d="m 1351.471,1337.2669 50.7247,-4.5282 c 0,0 -2.492,-12.308 4.5997,-11.237 7.0917,1.0709 2.5578,16.7977 2.5578,16.7977 l -58.2092,2.0192 z"
         id="path20133"
         inkscape:connector-curvature="0"
         sodipodi:nodetypes="ccsccc" />
      <ellipse
         ry="7.0285716"
         rx="4.8000002"
         cy="505.67648"
         cx="-148.45714"
         style="color:#000000;display:inline;overflow:visible;visibility:visible;fill:#ffffff;fill-opacity:1;fill-rule:nonzero;stroke:none;stroke-width:2.59126377;marker:none;enable-background:accumulate"
         id="path20139"
         transform="matrix(-0.95103732,-0.44634623,0.44634623,-0.95103732,1006.6638,1741.3955)" />
      <ellipse
         ry="7.0285716"
         rx="4.8000002"
         cy="505.67648"
         cx="-148.45714"
         transform="matrix(-0.95103732,-0.44634623,0.44634623,-0.95103732,1020.3839,1736.019)"
         id="path20141"
         style="color:#000000;display:inline;overflow:visible;visibility:visible;fill:#ffffff;fill-opacity:1;fill-rule:nonzero;stroke:none;stroke-width:2.59126377;marker:none;enable-background:accumulate" />
      <path
         inkscape:connector-curvature="0"
         id="path20147"
         d="m 1297.954,1350.6246 -48.4378,48.7309 26.4019,28.5637 22.6028,-23.8704 -15.5148,-15.9396 -10.667,11.1295 10.2568,13.5053 -1.1668,1.1593 -11.977,-11.4957 c -1.7291,-1.7249 -2.2914,-3.6099 -0.399,-5.8319 l 11.1743,-11.5745 c 1.7363,-1.3851 3.4408,-1.6911 5.1029,-0.5451 0,0 9.3262,7.005 17.7402,16.6236 2.1967,2.9987 1.6536,5.6051 -0.5641,7.9717 l -22.151,25.4373 c -2.692,2.3484 -6.0635,1.8467 -8.5761,-0.6079 l -31.2085,-29.2542 c -3.2037,-2.7645 -2.9988,-9.1832 0.097,-11.9686 l 48.784,-51.0113 z"
         style="color:#000000;display:inline;overflow:visible;visibility:visible;fill:#ffffff;fill-opacity:1;fill-rule:nonzero;stroke:none;stroke-width:2.59126377;marker:none;enable-background:accumulate"
         sodipodi:nodetypes="cccccccccccccccccccc" />
      <path
         style="color:#000000;display:inline;overflow:visible;visibility:visible;fill:#ffffff;fill-opacity:1;fill-rule:nonzero;stroke:none;stroke-width:2.59126377;marker:none;enable-background:accumulate"
         d="m 1312.2396,1376.649 4.5281,50.7248 c 0,0 12.3081,-2.4921 11.2371,4.5996 -1.0709,7.0917 -16.7977,2.5579 -16.7977,2.5579 l -2.0192,-58.2093 z"
         id="path20151"
         inkscape:connector-curvature="0"
         sodipodi:nodetypes="ccsccc" />
      <ellipse
         ry="7.0285716"
         rx="4.8000002"
         cy="505.67648"
         cx="-148.45714"
         style="color:#000000;display:inline;overflow:visible;visibility:visible;fill:#ffffff;fill-opacity:1;fill-rule:nonzero;stroke:none;stroke-width:2.59126377;marker:none;enable-background:accumulate"
         id="path20153"
         transform="matrix(0.44634623,-0.95103732,0.95103732,0.44634623,908.11094,1031.8418)" />
      <ellipse
         ry="7.0285716"
         rx="4.8000002"
         cy="505.67648"
         cx="-148.45714"
         transform="matrix(0.44634623,-0.95103732,0.95103732,0.44634623,913.48746,1045.5619)"
         id="path20155"
         style="color:#000000;display:inline;overflow:visible;visibility:visible;fill:#ffffff;fill-opacity:1;fill-rule:nonzero;stroke:none;stroke-width:2.59126377;marker:none;enable-background:accumulate" />
      <path
         sodipodi:nodetypes="cccccccccccccccccccc"
         style="color:#000000;display:inline;overflow:visible;visibility:visible;fill:#ffffff;fill-opacity:1;fill-rule:nonzero;stroke:none;stroke-width:2.59126377;marker:none;enable-background:accumulate"
         d="m 1326.3744,1324.06 48.4378,-48.731 -26.4018,-28.5637 -22.6029,23.8704 15.5149,15.9396 10.6669,-11.1294 -10.2568,-13.5053 1.1668,-1.1594 11.9771,11.4958 c 1.7291,1.7248 2.2914,3.6099 0.3989,5.8318 l -11.1743,11.5745 c -1.7362,1.3852 -3.4408,1.6911 -5.1029,0.5451 0,0 -9.3261,-7.005 -17.7401,-16.6235 -2.1967,-2.9987 -1.6537,-5.6052 0.564,-7.9717 l 22.151,-25.4373 c 2.6921,-2.3484 6.0636,-1.8467 8.5761,0.6079 l 31.2086,29.2541 c 3.2037,2.7645 2.9987,9.1832 -0.097,11.9687 l -48.784,51.0113 z"
         id="path20161"
         inkscape:connector-curvature="0" />
      <path
         sodipodi:nodetypes="ccsccc"
         inkscape:connector-curvature="0"
         id="path20165"
         d="m 1312.0888,1298.0355 -4.5281,-50.7247 c 0,0 -12.308,2.492 -11.237,-4.5997 1.0709,-7.0917 16.7977,-2.5578 16.7977,-2.5578 l 2.0192,58.2092 z"
         style="color:#000000;display:inline;overflow:visible;visibility:visible;fill:#ffffff;fill-opacity:1;fill-rule:nonzero;stroke:none;stroke-width:2.59126377;marker:none;enable-background:accumulate" />
      <ellipse
         ry="7.0285716"
         rx="4.8000002"
         cy="505.67648"
         cx="-148.45714"
         transform="matrix(-0.44634623,0.95103732,-0.95103732,-0.44634623,1716.2175,1642.8427)"
         id="path20169"
         style="color:#000000;display:inline;overflow:visible;visibility:visible;fill:#ffffff;fill-opacity:1;fill-rule:nonzero;stroke:none;stroke-width:2.59126377;marker:none;enable-background:accumulate" />
      <ellipse
         ry="7.0285716"
         rx="4.8000002"
         cy="505.67648"
         cx="-148.45714"
         style="color:#000000;display:inline;overflow:visible;visibility:visible;fill:#ffffff;fill-opacity:1;fill-rule:nonzero;stroke:none;stroke-width:2.59126377;marker:none;enable-background:accumulate"
         id="path20173"
         transform="matrix(-0.44634623,0.95103732,-0.95103732,-0.44634623,1710.8409,1629.1226)" />
      <path
         style="color:#000000;font-style:normal;font-variant:normal;font-weight:normal;font-stretch:normal;font-size:medium;line-height:normal;font-family:Sans;-inkscape-font-specification:Sans;text-indent:0;text-align:start;text-decoration:none;text-decoration-line:none;letter-spacing:normal;word-spacing:normal;text-transform:none;direction:ltr;block-progression:tb;writing-mode:lr-tb;baseline-shift:baseline;text-anchor:start;display:inline;overflow:visible;visibility:visible;fill:#ffffff;fill-opacity:1;stroke:none;stroke-width:2;marker:none;enable-background:accumulate"
         d="m 1057.6513,1283.371 a 7.084625,7.084625 0 0 0 -7,7.1875 l 0,93.5625 a 7.09375,7.09375 0 0 0 14.1875,0 l 0,-93.5625 a 7.084625,7.084625 0 0 0 -7.1875,-7.1875 z m -50.1875,0.3437 a 7.084625,7.084625 0 0 0 -7,7.1876 l 0,73.0312 c 0,14.9723 12.2776,27.25 27.25,27.25 l 12.625,0 a 7.084625,7.084625 0 1 0 0,-14.1562 l -12.625,0 c -7.3684,0 -13.0937,-5.7254 -13.0937,-13.0938 l 0,-73.0312 a 7.084625,7.084625 0 0 0 -7.1563,-7.1876 z m 186.5938,0 a 7.084625,7.084625 0 0 0 -6.9688,7.1876 l 0,73.0312 c 0,14.9723 12.2464,27.25 27.2188,27.25 l 12.625,0 a 7.084625,7.084625 0 1 0 0,-14.1562 l -12.625,0 c -7.3685,0 -13.0625,-5.7254 -13.0625,-13.0938 l 0,-73.0312 a 7.084625,7.084625 0 0 0 -7.1875,-7.1876 z m -216.53128,0.125 c -14.97231,0 -27.25,12.2464 -27.25,27.2188 l 0,16.9375 a 7.084625,7.084625 0 0 0 0,13.9063 l 0,42.2187 a 7.084625,7.084625 0 1 0 14.15625,0 l 0,-42.0625 22.1875,0 a 7.09375,7.09375 0 0 0 0,-14.1875 l -22.1875,0 0,-16.8125 c 0,-7.3686 5.72523,-13.0625 13.09375,-13.0625 l 12.59375,0 a 7.084625,7.084625 0 1 0 0,-14.1563 l -12.59375,0 z m 113.78128,0.875 -0.3438,0.031 c 0,0 -5.7587,0.5976 -11.5,4.1563 -5.7412,3.5587 -11.8437,11.0549 -11.8437,22.0937 0,10.1817 3.4139,17.8702 8.2187,23.0625 4.8048,5.1922 10.371,8.1028 14.7813,11.0312 5.0095,3.3264 9.6926,6.0652 12.6562,8.875 2.9637,2.81 4.375,5.0227 4.375,9.5 0,9.2701 -6.9883,14.25 -12,14.25 -8.747,0 -17.3437,-0.5624 -17.3437,-0.5624 a 6.6072322,6.6072322 0 0 0 -0.8438,13.1874 c 0,0 8.8905,0.5626 18.1875,0.5626 13.0325,0 25.1875,-11.4799 25.1875,-27.4376 0,-8.1365 -3.8153,-14.6817 -8.4687,-19.0937 -4.6535,-4.4121 -9.9585,-7.3071 -14.4375,-10.2813 -5.0783,-3.372 -9.5547,-5.9184 -12.4063,-9 -2.8515,-3.0815 -4.7187,-6.5329 -4.7187,-14.0937 0,-6.7039 2.6261,-9.0162 5.625,-10.875 2.8744,-1.7817 5.6098,-2.1857 5.8437,-2.2187 l 17.4688,0 a 6.6006599,6.6006599 0 1 0 0,-13.1876 l -18.0625,0 -0.375,0 z m 52.6562,26.5626 c -11.0761,0 -20.1875,9.1425 -20.1875,20.2187 l 0,39.4687 c 0,11.0762 9.1114,20.2188 20.1875,20.2188 l 18.6563,0 c 11.0761,0 20.2187,-9.1425 20.2187,-20.2188 l 0,-39.4687 c 0,-11.0762 -9.1426,-20.2187 -20.2187,-20.2187 l -18.6563,0 z m 0,14.1562 18.6563,0 c 3.4722,0 6.0312,2.5902 6.0312,6.0625 l 0,39.4687 c 0,3.4723 -2.559,6.0626 -6.0312,6.0626 l -18.6563,0 c -3.4722,0 -6.0312,-2.5903 -6.0312,-6.0626 l 0,-39.4687 c 0,-3.4723 2.559,-6.0625 6.0312,-6.0625 z"
         id="path20219"
         inkscape:connector-curvature="0" />
      <circle
         r="53"
         cy="530.36218"
         cx="-207"
         style="color:#000000;display:inline;overflow:visible;visibility:visible;fill:#ffffff;fill-opacity:1;fill-rule:nonzero;stroke:#0055d4;stroke-width:6.50153255;stroke-opacity:1;marker:none;enable-background:accumulate"
         id="path20221"
         transform="matrix(0.92285934,0,0,0.92285934,1503.5875,847.8506)" />
      <circle
         r="68.136078"
         cy="170.44995"
         cx="339.39481"
         transform="matrix(0.7586773,0,0,0.7586773,1055.0644,1207.9839)"
         style="color:#000000;display:inline;overflow:visible;visibility:visible;fill:#0055d4;fill-opacity:1;fill-rule:nonzero;stroke:none;stroke-width:1;marker:none;enable-background:accumulate"
         id="path20223" />
      <circle
         r="68.136078"
         cy="170.44995"
         cx="339.39481"
         id="path20225"
         style="color:#000000;display:inline;overflow:visible;visibility:visible;opacity:0.4820717;fill:url(#radialGradient20235);fill-opacity:1;fill-rule:nonzero;stroke:none;stroke-width:1;marker:none;enable-background:accumulate"
         transform="matrix(0.7586773,0,0,0.7586773,1055.0644,1207.9839)" />
      <circle
         r="68.136078"
         cy="170.44995"
         cx="339.39481"
         transform="matrix(0.57670427,0,0,0.57670427,1116.8252,1231.4316)"
         style="color:#000000;display:inline;overflow:visible;visibility:visible;fill:url(#radialGradient20237);fill-opacity:1;fill-rule:nonzero;stroke:none;stroke-width:1.35547781;marker:none;filter:url(#filter4645);enable-background:accumulate"
         id="path20227" />
      <path
         sodipodi:nodetypes="cccccccccccccccccccssccccccccscccccccsccc"
         style="font-size:12px;fill:#0055d4;fill-opacity:1;fill-rule:nonzero;stroke:#ff7d23;stroke-width:1.1452688;stroke-opacity:1;filter:url(#filter15293)"
         d="m -1392.4809,-1232.0483 c -0.8019,0.033 -1.509,0.2328 -2.0475,0.6749 -0.2982,2.8855 0.7189,6.5887 2.9222,8.6149 -0.1902,-0.2464 -0.4195,-0.6929 -0.7355,-1.4291 -0.9777,-1.6628 -2.7369,-9.0374 0.656,-5.4787 1.989,4.1785 2.6367,9.2781 5.7252,12.9819 2.3538,3.8651 6.8255,4.1147 10.5955,5.0816 3.2734,1.588 4.3264,6.2894 7.8522,7.2255 2.5104,3.2637 -0.6389,7.349 -2.0078,10.5006 -2.7461,4.8644 2.8883,7.8174 4.6716,11.632 3.6086,4.9811 7.031,11.5771 4.3138,17.8452 -1.6058,4.5347 -1.9956,9.5445 -3.1409,14.2721 -0.5096,3.3536 -1.2328,10.3996 2.3855,11.0564 0.7253,-3.6267 0.4384,-7.5298 3.3595,-10.2624 2.8735,-5.4672 8.4716,-8.8774 12.7226,-12.7436 1.9606,-2.3297 5.7601,-7.6173 9.5221,-10.203 1.6683,-2.8236 1.1693,-7.6219 4.2343,-10.4213 2.348,-2.4836 3.5146,-8.2489 -0.994,-8.9324 -6.0092,-2.3954 -10.9523,-6.9424 -14.9491,-12.0886 -4.3284,-2.3316 -7.0463,-2.9684 -11.6629,-4.4538 -0.281,-0.091 -0.6668,2.4248 -1.5084,2.4164 -1.1507,-0.011 0.2655,-3.2189 -2.2349,-3.1236 -0.4188,1.379 -2.8098,3.5597 -4.453,4.0295 -0.6343,-1.0347 -2.8863,-3.2068 -2.7234,-4.9624 -0.075,-3.5364 -4.592,-3.6234 -2.8626,-6.9872 -1.0331,-2.9637 -5.1833,4.3511 -6.8781,-0.6552 -1.002,-4.349 -1.1763,-11.7175 -5.1885,-12.545 -1.9336,-0.7657 -5.1682,-2.1428 -7.5739,-2.0447 z m 24.8308,12.2251 c 0.3973,0.1244 2.1717,-0.4166 4.1253,-0.3854 1.8411,0.03 4.9133,1.545 5.4703,1.0618 -0.868,-2.878 -6.9897,-2.3488 -6.8746,-2.3354 -0.9249,0.7782 -3.383,1.4105 -2.721,1.659 z m 20.154,5.4712 c -0.1529,0.27 -0.9304,0.3375 -0.9313,-0.2161 0.3055,-0.5351 0.9002,-0.076 0.9313,0.2161 z m -3.6979,-1.0674 c -3.4763,-0.1072 -1.191,-1.878 -3.0367,-1.8379 -1.2939,0.027 -0.927,1.3862 -3.1699,1.1772 2.062,0.9711 2.2009,0.732 3.6375,1.4994 2.0386,-0.1206 3.2905,-0.092 2.5691,-0.8387 z"
         id="path20229"
         inkscape:connector-curvature="0"
         transform="matrix(0.87315755,0,0,0.87315755,2503.5473,2376.2329)" />
      <path
         inkscape:connector-curvature="0"
         id="path20231"
         d="m 1287.6921,1300.4607 c -0.7002,0.029 -1.3176,0.2032 -1.7878,0.5893 -0.2604,2.5195 0.6277,5.7529 2.5515,7.5221 -0.166,-0.2151 -0.3662,-0.605 -0.6422,-1.2478 -0.8537,-1.4519 -2.3897,-7.8911 0.5728,-4.7838 1.7367,3.6485 2.3023,8.1013 4.999,11.3353 2.0553,3.3748 5.9598,3.5928 9.2516,4.437 2.8582,1.3866 3.7776,5.4916 6.8562,6.309 2.1919,2.8497 -0.5579,6.4168 -1.7532,9.1687 -2.3977,4.2474 2.522,6.8258 4.0791,10.1566 3.1509,4.3492 6.1392,10.1086 3.7666,15.5816 -1.4021,3.9595 -1.7425,8.3339 -2.7425,12.4618 -0.4449,2.9282 -1.0764,9.0805 2.0829,9.654 0.6333,-3.1667 0.3828,-6.5747 2.9334,-8.9607 2.509,-4.7737 7.397,-7.7514 11.1088,-11.1272 1.712,-2.0342 5.0295,-6.6511 8.3143,-8.9088 1.4567,-2.4654 1.021,-6.6551 3.6972,-9.0994 2.0502,-2.1686 3.0688,-7.2026 -0.8679,-7.7994 -5.247,-2.0916 -9.5631,-6.0618 -13.0529,-10.5553 -3.7794,-2.0358 -6.1525,-2.5919 -10.1835,-3.8888 -0.2454,-0.08 -0.5823,2.1172 -1.3171,2.1099 -1.0048,-0.01 0.2318,-2.8106 -1.9514,-2.7274 -0.3657,1.204 -2.4534,3.1081 -3.8882,3.5184 -0.5538,-0.9035 -2.5202,-2.8001 -2.378,-4.333 -0.065,-3.0878 -4.0095,-3.1638 -2.4995,-6.1009 -0.902,-2.5878 -4.5258,3.7992 -6.0056,-0.5721 -0.8749,-3.7974 -1.0271,-10.2312 -4.5304,-10.9538 -1.6883,-0.6686 -4.5127,-1.871 -6.6132,-1.7853 z m 21.6812,10.6744 c 0.3469,0.1086 1.8962,-0.3637 3.602,-0.3365 1.6076,0.026 4.2901,1.349 4.7765,0.9271 -0.7579,-2.5129 -6.1031,-2.0509 -6.0026,-2.0392 -0.8076,0.6795 -2.9539,1.2316 -2.3759,1.4486 z m 17.5976,4.7772 c -0.1335,0.2358 -0.8124,0.2947 -0.8132,-0.1887 0.2668,-0.4672 0.7861,-0.066 0.8132,0.1887 z m -3.2288,-0.932 c -3.0354,-0.094 -1.04,-1.6398 -2.6516,-1.6048 -1.1297,0.024 -0.8094,1.2104 -2.7678,1.0279 1.8005,0.8479 1.9218,0.6392 3.1761,1.3092 1.78,-0.1053 2.8732,-0.08 2.2433,-0.7323 z"
         style="font-size:12px;fill:#ccff00;fill-opacity:1;fill-rule:nonzero;stroke:#d4ff2a;stroke-width:1.00000012;stroke-opacity:1"
         sodipodi:nodetypes="cccccccccccccccccccssccccccccscccccccsccc" />
      <path
         sodipodi:nodetypes="cccccccccczczcsczczccccc"
         inkscape:connector-curvature="0"
         id="path20233"
         d="m 1328.3838,1292.6133 c 3.4651,1.83 8.1043,4.6851 10.1513,6.5327 2.3577,1.2433 6.2085,4.4506 9.5763,6.9779 0,0 -4.6582,-5.2539 -8.8493,-8.2416 -3.3557,-2.3163 -7.1416,-3.9403 -10.8783,-5.269 z m 17.213,9.2938 4.524,5.5374 4.0325,4.2008 -3.3375,-4.7991 z m -8.9793,-2.4754 c -5.647,-3.5425 -15.7638,-8.3129 -15.7638,-8.3129 0,0 4.9464,5.3399 6.8075,11.8727 1.8612,6.5329 -0.5606,11.507 -0.5606,11.507 0,0 7.3819,1.3536 16.3661,7.2436 9.1038,5.9683 14.2109,18.3074 14.2109,18.3074 0,0 0.5209,-6.9266 -2.2657,-16.8024 -2.7865,-9.8758 -6.6299,-15.0803 -6.6299,-15.0803 0,0 -6.5175,-5.1927 -12.1645,-8.7351 z m 14.3521,10.474 c 2.0326,3.6441 4.556,7.5121 5.3679,10.6479 1.755,2.9294 3.2096,7.8891 4.677,13.5353 0,0 -0.1909,-10.4311 -2.595,-14.5703 -2.4585,-3.997 -7.4499,-9.6129 -7.4499,-9.6129 z"
         style="opacity:0.87980772;fill:url(#linearGradient20239);fill-opacity:1;stroke:none" />
    </g>
  </g>
</svg>
