<?xml version="1.0" encoding="UTF-8" standalone="no"?>
<!-- Created with Inkscape (http://www.inkscape.org/) -->

<svg
   width="987.96802"
   height="279.20102"
   viewBox="0 0 261.39987 73.871936"
   version="1.1"
   id="svg1"
   xml:space="preserve"
   inkscape:version="1.3.2 (091e20ef0f, 2023-11-25)"
   sodipodi:docname="marca-anapolivre.svg"
   xmlns:inkscape="http://www.inkscape.org/namespaces/inkscape"
   xmlns:sodipodi="http://sodipodi.sourceforge.net/DTD/sodipodi-0.dtd"
   xmlns:xlink="http://www.w3.org/1999/xlink"
   xmlns="http://www.w3.org/2000/svg"
   xmlns:svg="http://www.w3.org/2000/svg"><sodipodi:namedview
     id="namedview1"
     pagecolor="#ffffff"
     bordercolor="#000000"
     borderopacity="0.25"
     inkscape:showpageshadow="2"
     inkscape:pageopacity="0.0"
     inkscape:pagecheckerboard="0"
     inkscape:deskcolor="#d1d1d1"
     inkscape:document-units="px"
     inkscape:zoom="0.87491493"
     inkscape:cx="804.07818"
     inkscape:cy="265.74012"
     inkscape:window-width="1920"
     inkscape:window-height="983"
     inkscape:window-x="0"
     inkscape:window-y="0"
     inkscape:window-maximized="1"
     inkscape:current-layer="layer1"
     showgrid="false"><inkscape:page
       x="0"
       y="0"
       width="261.39987"
       height="73.871933"
       id="page3"
       margin="0"
       bleed="0" /></sodipodi:namedview><defs
     id="defs1"><linearGradient
       id="linearGradient2"
       inkscape:collect="always"><stop
         style="stop-color:#ffffff;stop-opacity:1;"
         offset="0"
         id="stop2" /><stop
         style="stop-color:#0a88bf;stop-opacity:1"
         offset="1"
         id="stop3" /></linearGradient><radialGradient
       inkscape:collect="always"
       xlink:href="#linearGradient2"
       id="radialGradient3"
       cx="43.900234"
       cy="70.77475"
       fx="43.900234"
       fy="70.77475"
       r="122.82145"
       gradientTransform="matrix(1.2582076,0,0,1.3565909,91.087901,-25.237631)"
       gradientUnits="userSpaceOnUse" /><clipPath
       clipPathUnits="userSpaceOnUse"
       id="clipPath25"><circle
         style="fill:#ffffff;fill-opacity:1;stroke:none;stroke-width:0.232381;stroke-linecap:round;stroke-linejoin:round"
         id="circle25"
         cx="441.82285"
         cy="306.92838"
         r="36.532173" /></clipPath></defs><g
     inkscape:label="Camada 1"
     inkscape:groupmode="layer"
     id="layer1"><g
       id="g1"
       transform="translate(-84.882735,-65.989897)"><rect
         style="fill:none;stroke-width:0.290917;stroke-linecap:round;stroke-linejoin:round"
         id="rect1"
         width="261.39987"
         height="73.871933"
         x="84.882736"
         y="65.989899" /><g
         id="g3"
         transform="matrix(0.25007356,0,0,0.25007356,79.005491,85.588919)"><path
           d="M 23.502061,-61.6505 64.626691,203.2 H 228.02033 l 41.12462,-264.8505 z"
           style="fill:url(#radialGradient3);stroke-width:0.262553;stroke-linecap:round;stroke-linejoin:round"
           id="path2"
           sodipodi:nodetypes="ccccc" /><path
           style="fill:#39223c;fill-opacity:1"
           d="m 125.56859,216.82547 c -2.56917,-0.46236 -3.70417,-1.48623 -3.70417,-3.3415 0,-1.01372 1.47098,-2.33905 2.60522,-2.34726 1.61597,-0.0117 1.9207,-0.71861 3.41929,-7.93209 0.39904,-1.92078 1.10227,-5.3357 1.29131,-9.18766 0.01,-0.20005 -0.59518,-0.18959 -0.58603,-0.39275 0.1583,-3.51728 0.43902,-7.53852 0.36646,-11.41995 -0.048,-2.56604 0.0796,-4.84656 0.30421,-5.43727 0.28125,-0.73974 0.2799,-1.53259 -0.005,-2.9047 -0.29675,-1.42946 -0.28809,-2.20144 0.0357,-3.18255 0.24277,-0.73559 0.42343,-3.14337 0.41808,-5.57206 -0.006,-2.84411 0.14372,-4.56288 0.44773,-5.13094 0.38254,-0.71478 0.36914,-1.02443 -0.0821,-1.89707 -0.41496,-0.80246 -0.48512,-1.64065 -0.30431,-3.63596 0.12924,-1.4262 0.31221,-2.79433 0.40659,-3.04029 0.0944,-0.24597 -0.30673,-1.15319 -0.89136,-2.01606 -0.58463,-0.86287 -1.06939,-1.88635 -1.07723,-2.27441 -0.008,-0.38805 -0.31608,-1.09834 -0.68497,-1.57842 -0.65955,-0.85834 -0.6829,-0.86183 -1.40327,-0.2099 -0.99055,0.89643 -1.08968,3.9511 -0.1152,3.54993 1.48398,-0.61093 1.97376,-0.61466 2.40978,-0.0184 0.2487,0.34012 0.36445,0.847 0.25723,1.12641 -0.10721,0.27941 0.0879,0.82058 0.43365,1.2026 0.7648,0.84509 0.57728,1.06196 -1.5381,1.77883 -2.10914,0.71475 -2.29743,1.50284 -0.55843,2.33729 1.36151,0.65332 2.39027,1.82776 2.77711,3.17037 0.17767,0.61663 0.007,0.88752 -0.83535,1.32292 -0.58232,0.30113 -1.61291,0.54751 -2.29019,0.54751 -0.67728,0 -1.32708,0.15479 -1.44401,0.34397 -0.11692,0.18919 0.40165,1.02263 1.15239,1.85209 1.82582,2.01726 2.54634,3.12073 2.54634,3.89966 0,0.5982 -0.0592,0.60559 -0.78405,0.0979 -0.43123,-0.30204 -1.14561,-0.54917 -1.5875,-0.54917 -0.82846,0 -0.83399,0.0165 -1.00511,2.99861 -0.0334,0.58209 -0.0846,2.56646 -0.11377,4.40972 l -0.053,3.35139 -0.66764,-0.8688 -0.66765,-0.8688 -0.22659,1.39797 c -0.12463,0.76888 -0.4509,2.42984 -0.72505,3.69102 -0.27415,1.26118 -0.59992,3.19817 -0.72393,4.30443 l -0.22547,2.01137 -0.88109,-0.57731 c -0.81846,-0.53627 -0.90474,-0.53506 -1.21374,0.0171 -0.18296,0.32693 -0.6171,0.59441 -0.96475,0.59441 -0.55521,0 -0.60063,-0.20382 -0.37334,-1.67569 0.14231,-0.92163 0.21462,-1.72374 0.16068,-1.78247 -0.2991,-0.32561 -1.68186,2.08221 -2.16983,3.77834 -0.72128,2.5071 -1.62973,4.3055 -2.81142,5.56563 -2.25084,2.40022 -2.71567,3.48088 -2.5146,5.84597 0.11,1.29387 0.56517,3.00362 1.10303,4.14322 1.2034,2.54977 1.19456,3.01479 -0.0421,2.21299 l -0.96473,-0.62549 0.76391,1.30167 c 0.52563,0.89566 0.63398,1.34763 0.34737,1.44905 -0.29524,0.10446 -0.23172,0.4689 0.21816,1.25155 0.51505,0.89603 0.53517,1.06598 0.10669,0.90155 -0.67104,-0.2575 -1.98636,-1.98083 -3.06967,-4.02187 l -0.84258,-1.5875 -0.11139,1.13007 c -0.0613,0.62154 0.0461,1.70038 0.23855,2.39742 0.33287,1.20558 0.31242,1.25577 -0.41985,1.03009 -0.42338,-0.13049 -1.22458,-0.46877 -1.78045,-0.75174 -0.70768,-0.36025 -1.12204,-0.40313 -1.38214,-0.14303 -0.45324,0.45323 -1.2857,2.77802 -1.34121,3.74552 -0.0707,1.23233 -0.60083,-0.86723 -0.64054,-2.53682 -0.0193,-0.81317 -0.18926,-1.57372 -0.3776,-1.69012 -0.33988,-0.21006 -0.45106,0.10032 -1.00869,2.81583 -0.23762,1.15716 -0.3386,0.58578 -0.56114,-3.175 -0.3806,-6.43209 -0.38374,-7.01683 -0.0568,-10.58334 0.18535,-2.02186 0.16851,-3.04687 -0.0463,-2.82222 -0.8606,0.89981 -2.786159,7.89172 -3.206109,11.64167 l -0.27654,2.46944 -0.24819,-2.64583 c -0.18107,-1.93024 -0.0108,-4.64949 0.62971,-10.05417 1.38763,-11.70962 1.21757,-12.35002 -1.26473,-4.7625 -0.79347,2.42535 -2.14309,5.7591 -2.99916,7.40834 -1.67326,3.22358 -3.98903,6.2453 -4.01187,5.23488 -0.007,-0.32228 1.02748,-3.25023 2.29947,-6.50657 1.71913,-4.40102 2.35922,-6.51424 2.49391,-8.23349 0.1605,-2.04861 0.12327,-2.24192 -0.32582,-1.69183 -0.27887,0.34158 -1.56187,3.83408 -2.85112,7.76111 -1.28925,3.92704 -2.49222,7.37359 -2.67326,7.65901 -0.5554,0.87561 -0.73642,0.2105 -0.41336,-1.51876 0.36019,-1.928 -0.0705,-2.19653 -0.65973,-0.4113 -0.37541,1.13749 -1.05834,1.7066 -1.05834,0.88195 0,-0.67841 -0.55862,-0.34399 -1.1786,0.70555 -0.92525,1.56632 -1.74091,1.41581 -1.43384,-0.26458 0.33423,-1.82899 0.63859,-2.56969 1.69653,-4.12865 0.98804,-1.45595 1.74037,-3.76666 1.53591,-4.71736 -0.0879,-0.40899 -0.53268,0.006 -1.4452,1.34948 -3.63288,5.3475 -4.61249,6.68226 -4.91217,6.69307 -0.38573,0.0139 0.65515,-2.35098 1.8637,-4.23435 0.56713,-0.88379 1.25505,-2.23512 1.52872,-3.00295 0.27366,-0.76782 0.97763,-2.43887 1.56436,-3.71344 1.56098,-3.39094 2.05118,-5.19618 1.54771,-5.69966 -0.51802,-0.51802 -2.29699,1.08667 -3.24308,2.92538 -0.35611,0.69207 -0.90718,1.47386 -1.2246,1.7373 -0.51829,0.43014 -0.55215,0.37378 -0.33205,-0.55277 l 0.24509,-1.03175 -1.28124,1.21574 c -1.49638,1.41987 -1.67347,0.86796 -0.39009,-1.21574 0.93193,-1.51308 1.1208,-2.96221 0.47079,-3.61222 -0.30074,-0.30075 -0.73598,0.11487 -1.72867,1.65075 -2.19371,3.3941 -2.17261,2.73911 0.0448,-1.3896 1.14722,-2.13609 2.08585,-3.96251 2.08585,-4.05872 0,-0.38207 -0.86226,-0.14246 -1.47152,0.40892 -0.60112,0.544 -0.64514,0.54265 -0.64514,-0.0198 0,-0.332 0.47625,-1.56352 1.05833,-2.73671 0.58208,-1.1732 1.05833,-2.64158 1.05833,-3.26307 0,-0.65135 0.37357,-1.63632 0.88195,-2.32539 0.48507,-0.65747 0.88194,-1.32331 0.88194,-1.47965 0,-0.48627 -0.79419,-0.31272 -1.52435,0.33312 -0.68091,0.60228 -0.69184,0.59151 -0.44747,-0.44097 0.66745,-2.81997 1.84818,-5.29382 3.29437,-6.90233 1.26292,-1.40467 1.45452,-1.7802 0.99772,-1.95548 -0.31095,-0.11933 -0.78293,-0.0364 -1.04884,0.18429 -0.37435,0.31068 -0.5385,0.25987 -0.72727,-0.22511 -0.22157,-0.56926 -0.30654,-0.54944 -0.93196,0.21736 -0.3785,0.46405 -0.76429,0.7676 -0.85733,0.67456 -0.33296,-0.33295 0.65256,-2.59492 1.55344,-3.56546 0.50482,-0.54386 0.91978,-1.21224 0.92214,-1.48529 0.002,-0.27305 1.03615,-1.25683 2.29733,-2.18616 2.16839,-1.59785 2.24031,-1.69578 1.32292,-1.80134 -0.53358,-0.0614 -0.97014,-0.24136 -0.97014,-0.39992 0,-0.59401 2.85526,-2.84005 3.61699,-2.84524 0.97611,-0.007 1.58128,-0.36942 1.73458,-1.03979 0.0705,-0.30838 -0.15964,-0.51586 -0.5833,-0.52583 -0.38488,-0.009 -0.74916,-0.27067 -0.80951,-0.58136 -0.088,-0.45291 0.3304,-0.60683 2.11089,-0.77655 2.30938,-0.22014 4.51368,-0.83989 4.51368,-1.26903 0,-0.29049 -4.00473,0.0816 -5.2889,0.4914 -0.77074,0.24595 -0.8227,0.2125 -0.42127,-0.27118 0.29135,-0.35106 1.63055,-0.71199 3.68188,-0.99232 3.42894,-0.46859 3.44626,-0.95581 0.0356,-1.00237 -1.36159,-0.0186 -2.31094,0.23543 -3.79236,1.0147 -1.94594,1.02362 -2.56801,0.99728 -1.35874,-0.0575 1.20737,-1.05316 2.22201,-1.34879 5.89965,-1.71892 3.224489,-0.32453 3.963509,-0.29504 5.514109,0.21998 1.26953,0.42167 1.90019,0.48512 2.16728,0.21804 0.64525,-0.64526 -0.3935,-1.53123 -1.50824,-1.28639 -0.77461,0.17013 -1.13168,8.2e-4 -1.88406,-0.89333 -0.51058,-0.60678 -0.92832,-1.28179 -0.92832,-1.50002 0,-0.21823 -0.63376,0.26278 -1.408349,1.0689 -0.89801,0.93456 -1.84844,1.54823 -2.62284,1.69351 -1.34534,0.25239 -3.44357,-0.30667 -4.09445,-1.09094 -0.56094,-0.67589 -0.85883,-0.43906 -1.78808,1.42158 -0.43066,0.86231 -1.22154,1.98796 -1.75751,2.50146 -1.03028,0.98707 -4.07827,1.89667 -6.3883,1.90645 -1.13754,0.005 -1.51448,0.25094 -2.97483,1.94245 -1.8199,2.10799 -2.40928,2.42647 -4.54203,2.45434 -1.33811,0.0175 -1.41696,0.0795 -1.52414,1.19822 -0.0901,0.94056 -0.80904,1.90627 -3.5455,4.7625 -3.98979,4.16444 -4.99992,5.56515 -7.2548,10.06 -0.91114,1.81625 -1.92401,3.3749 -2.25081,3.46366 -0.32681,0.0888 -1.07025,1.14273 -1.6521,2.34216 -1.16133,2.394 -1.36764,4.93462 -0.65453,8.06018 0.20655,0.90534 0.2978,2.85755 0.20278,4.33826 -0.14205,2.21335 -0.27237,2.67301 -0.73271,2.58435 -0.30796,-0.0593 -0.85289,-0.89685 -1.21095,-1.8612 -1.08557,-2.92378 -1.32171,-2.98124 -2.29138,-0.55762 -0.62574,1.56396 -1.03634,2.14043 -1.52459,2.14043 -0.84897,0 -0.8388,-0.4162 0.0764,-3.12625 0.71482,-2.11667 0.72661,-2.81501 0.0404,-2.39089 -0.17617,0.10888 -0.90242,1.59321 -1.6139,3.29852 -1.63058,3.90827 -1.78196,4.13909 -2.52715,3.85314 -0.7064,-0.27108 -0.64748,-0.6315 0.74424,-4.5529 0.76534,-2.15649 0.8813,-2.83382 0.54307,-3.17205 -0.54821,-0.54822 -0.91357,-0.0214 -1.63559,2.35824 -0.7096,2.33872 -1.44594,3.41151 -2.15487,3.13947 -0.74539,-0.28603 -0.48292,-1.94184 0.72657,-4.58372 1.41909,-3.09971 0.38436,-3.58544 -2.8933,-1.35821 -0.78281,0.53194 -1.42428,0.7533 -1.61891,0.55867 -0.72637,-0.72637 0.26099,-2.08864 3.29158,-4.54143 3.00197,-2.42962 3.27896,-2.77015 4.75529,-5.84613 2.26008,-4.70897 2.40195,-5.14029 1.77044,-5.38262 -0.9156,-0.35135 -0.58999,-1.19094 2.08788,-5.38351 1.43721,-2.25014 3.41144,-5.71456 4.38718,-7.6987 1.5675,-3.1875 4.07636,-7.3298 5.41545,-8.94128 0.25336,-0.3049 1.49253,-1.30201 2.75371,-2.21579 1.26118,-0.91379 3.62941,-3.12495 5.26273,-4.91369 1.63332,-1.78874 3.61769,-3.66145 4.40972,-4.16156 2.35713,-1.48838 13.28097,-7.24205 15.37477,-8.09801 1.06716,-0.43626 2.25778,-1.14636 2.64584,-1.578 0.38805,-0.43164 1.16381,-0.89406 1.72391,-1.02759 2.18672,-0.52136 5.436639,-3.98735 7.426469,-7.92022 0.52711,-1.04182 1.35978,-2.26623 1.85037,-2.7209 0.71495,-0.66258 1.05325,-1.61701 1.70441,-4.80854 0.44682,-2.19004 1.15333,-4.88811 1.57002,-5.995714 1.1299,-3.003424 3.50606,-4.776594 5.59724,-4.176851 1.36299,0.3909 1.82305,-0.08955 1.82473,-1.905568 0.002,-1.80228 0.9325,-3.34283 2.80642,-4.644675 1.04436,-0.725531 1.86103,-1.776454 2.84669,-3.663242 1.61996,-3.100977 1.76827,-3.290614 3.93453,-5.030847 1.44051,-1.157207 1.70447,-1.581986 2.06638,-3.325286 0.34006,-1.63807 0.72626,-2.319927 2.14089,-3.779832 l 1.72599,-1.781226 v -2.67191 c 0,-3.01318 0.33376,-3.692746 3.81338,-7.76452 1.11498,-1.304719 1.79321,-2.40008 1.6757,-2.706306 -0.10858,-0.282944 -0.19741,-0.739585 -0.19741,-1.014758 0,-0.316971 -0.37519,-0.500314 -1.02383,-0.500314 -1.77624,0 -2.24105,-2.510669 -1.24088,-6.702777 0.54044,-2.265221 1.3609,-18.513244 1.22915,-24.341666 -0.20541,-9.08761 0.14645,-16.2818635 1.25954,-25.75277699 0.41572,-3.53715041 0.61382,-8.16269551 0.64212,-14.99305501 0.0225,-5.432778 0.16511,-10.078484 0.3169,-10.323791 0.61547,-0.994676 3.20626,-1.924448 5.87146,-2.107124 l 2.70252,-0.185235 0.53413,-7.450258 c 0.37658,-5.252682 0.42295,-7.522937 0.1572,-7.696656 -0.24335,-0.159076 -0.35106,-1.971896 -0.30393,-5.115277 0.0402,-2.677884 -0.0618,-6.068383 -0.22658,-7.534443 -0.35603,-3.167713 -1.15713,-4.270227 -3.57559,-4.92089 -2.91311,-0.783745 -3.51999,-1.264138 -3.51999,-2.786355 0,-0.747371 0.22663,-1.546939 0.50361,-1.776818 0.42915,-0.356159 0.37699,-0.604562 -0.35278,-1.679924 -1.04563,-1.540828 -1.05778,-1.757594 -0.11532,-2.05672 0.90616,-0.287604 1.12193,-0.05305 1.72872,1.879162 0.40422,1.287176 0.73189,1.637672 2.17801,2.329761 0.93621,0.448055 1.70161,0.718753 1.70088,0.601552 -7.2e-4,-0.117201 -0.34166,-0.768719 -0.75763,-1.447816 -0.41597,-0.679097 -1.05335,-1.760788 -1.41641,-2.403757 -0.36305,-0.64297 -0.76439,-1.698552 -1.22321,-2.028472 l -3.05567,-2.197224 c -2.40257,-0.918815 -2.14261,-3.566895 -1.78145,-5.267259 0.75521,-1.875944 10.87838,-1.716883 15.11466,-0.359758 2.21199,0.708628 3.78404,5.911648 3.78404,5.911648 l 1.86901,2.253579 c 1.20731,1.455722 1.0107,10.580616 0.75168,23.586434 -0.0455,2.283277 -0.15854,2.771258 -0.68052,2.936929 -0.70779,0.224644 -0.74056,-0.406314 0.50789,9.781558 0.7594,6.197031 -0.28544,6.13622 0.77319,6.40268 0.71868,0.180893 1.69548,0.455751 2.1507,1.477216 0.66615,1.494749 0.68679,4.168539 -0.20138,5.624171 0.2828,1.354366 0.26545,1.749865 0.78442,6.846142 0.78763,7.7345546 1.26351,11.3089767 1.76127,13.22916666 0.20119,0.77611104 0.50188,6.22462744 0.6682,12.10781434 0.16632,5.883186 0.57464,15.328811 0.90737,20.990277 0.5553,9.448579 0.67795,10.46733 1.49408,12.410241 0.73545,1.750826 0.9059,2.787373 0.98622,5.997222 0.0631,2.521183 -0.13447,3.368274 -0.12193,4.055275 1.27832,0.373375 1.99053,3.76834 1.99053,4.919763 0.74928,0 1.46659,0.276364 2.68395,0.641088 2.66682,0.799 10.92922,4.847983 16.33209,7.901043 4.9492,2.796698 16.05308,10.043608 20.18022,13.170549 4.24972,3.219817 6.44354,4.460228 10.2991,5.823239 7.90422,2.794286 21.63004,7.042792 26.11781,6.781824 l 2.50754,-0.145815 c 1.1957,-0.06953 0.55077,2.243905 0.51291,3.24331 l -0.11261,2.972332 6.10984,2.48058 c 6.66361,2.70541 12.85297,5.16878 12.99378,5.02798 0.0516,-0.0516 -0.0438,-0.70387 -0.21203,-1.44957 -0.41547,-1.84212 -0.17835,-2.26354 1.2508,-2.22303 1.40491,0.0398 1.3716,-0.029 0.65595,1.35496 -0.30508,0.58996 -0.47646,1.27653 -0.38084,1.52571 0.15041,0.39196 2.49083,1.00337 4.11095,1.07395 0.29127,0.0127 0.68815,0.11537 0.88194,0.22819 0.1938,0.11281 0.98736,0.31878 1.76347,0.45769 0.77611,0.13892 1.67249,0.487 1.99196,0.77352 0.75376,0.67603 4.87755,1.27765 5.45764,0.79622 0.47168,-0.39146 4.15064,0.42662 5.8346,1.29743 0.53255,0.27539 1.26904,0.5007 1.63666,0.5007 0.36762,0 0.97082,0.3344 1.34044,0.7431 0.36962,0.4087 1.30703,1.06503 2.08315,1.4585 0.77611,0.39347 1.52774,0.89252 1.67029,1.10899 0.66163,1.00473 0.14039,2.85981 -2.05316,7.30705 -1.27773,2.59049 -3.20185,6.85721 -4.27582,9.48159 -1.07397,2.62438 -2.50772,5.88286 -3.1861,7.24105 -2.54609,5.09753 -6.42147,9.57056 -8.59781,9.92373 -1.11038,0.18019 -1.40598,0.0229 -3.23759,-1.72302 -1.10861,-1.05672 -2.01565,-2.05788 -2.01565,-2.2248 0,-0.16692 0.39057,-1.50041 0.86793,-2.96331 0.9436,-2.8917 1.48921,-6.22852 1.31458,-8.03968 -0.13899,-1.44156 -0.7714,-1.51386 -0.7714,-0.0882 0,0.58209 -0.15875,1.05834 -0.35278,1.05834 -0.19402,0 -0.35277,-0.61504 -0.35277,-1.36676 0,-0.75172 -0.23813,-2.04168 -0.52917,-2.86658 -0.7653,-2.16909 -0.66432,-3.44169 0.3707,-4.67174 1.14763,-1.36389 1.1366,-3.88399 -0.0179,-4.09288 -0.38806,-0.0702 -0.96761,-0.35974 -1.2879,-0.64339 -0.39034,-0.34569 -0.6589,-0.39184 -0.81457,-0.13997 -0.39294,0.6358 -0.80867,0.41952 -1.05123,-0.54689 -0.1996,-0.79529 -0.37108,-0.89475 -1.2422,-0.72053 -0.80941,0.16188 -1.12373,0.0295 -1.57869,-0.66485 -0.35163,-0.53664 -0.90282,-0.86697 -1.44666,-0.86697 -0.48323,0 -1.15426,-0.15467 -1.49118,-0.34372 -1.27207,-0.71376 -8.43731,-2.58788 -12.82851,-3.35538 l -4.56398,-0.79769 -0.38908,0.74909 c -0.21399,0.412 -0.41675,0.78504 -0.45058,0.82899 -0.1991,0.25862 -8.83792,-1.07624 -10.60264,-1.6383 -1.31075,-0.41748 -3.72851,-0.7583 -6.35,-0.89514 -6.74541,-0.3521 -13.208,-1.23419 -15.16599,-2.07002 -0.96823,-0.41333 -3.11136,-1.84017 -4.7625,-3.17076 -1.65113,-1.33059 -3.63707,-2.74629 -4.41318,-3.14601 -0.77611,-0.39971 -1.92192,-1.11565 -2.54625,-1.59097 -1.02183,-0.77797 -1.6363,-0.8956 -6.15593,-1.17853 -5.13557,-0.32148 -9.80217,-1.26809 -11.75893,-2.38527 -0.7012,-0.40033 -1.55309,-1.549702 -2.5245,-3.40602 -0.80639,-1.540982 -1.62348,-2.854224 -1.81575,-2.918314 -0.19227,-0.06409 -0.69424,0.367501 -1.11549,0.959092 -0.95321,1.338647 -1.43993,1.350992 -2.39387,0.06072 -0.68243,-0.923041 -0.87724,-0.9917 -2.15225,-0.758548 -0.77105,0.140995 -1.98309,0.599264 -2.69343,1.018375 -0.87287,0.515007 -1.75924,0.732306 -2.73441,0.670354 l -1.44288,-0.09167 -0.50497,1.940278 c -0.38552,1.481333 -0.41357,2.196543 -0.11857,3.023663 0.92308,2.58812 0.0441,3.92026 -3.49416,5.29561 -2.53298,0.98459 -3.34637,1.73238 -4.71284,4.33279 -0.70641,1.34429 -1.28438,2.54002 -1.28438,2.65716 0,0.11715 0.44979,0.213 0.99954,0.213 1.38361,0 1.4836,0.204 0.92276,1.88266 -0.26989,0.8078 -0.57088,1.87807 -0.66888,2.37839 -0.18141,0.92623 -1.41897,1.73617 -2.65278,1.73617 -0.4847,0 -0.82213,0.49316 -1.26722,1.85208 -0.33364,1.01865 -1.03857,2.72521 -1.56651,3.79237 -0.52793,1.06715 -1.3176,3.05152 -1.75482,4.40972 -0.9216,2.86295 -1.9453,4.7628 -3.69445,6.85639 -1.04457,1.25027 -1.18522,1.60832 -0.86603,2.20473 0.3119,0.58279 0.22324,0.88163 -0.48842,1.64629 l -0.86949,0.93425 0.17831,7.44341 c 0.14637,6.10992 0.0804,7.75313 -0.36849,9.17223 -0.30226,0.95564 -0.61617,3.55151 -0.70192,5.8044 -0.0853,2.24158 -0.33619,4.41395 -0.55752,4.8275 -0.22133,0.41355 -0.40241,2.00866 -0.40241,3.54468 0,3.23975 -0.4326,4.75474 -1.57063,5.5004 -0.66725,0.4372 -0.85364,0.96105 -1.04385,2.9337 -0.80355,8.33349 -1.35298,12.41038 -1.79746,13.33757 -0.0631,0.13158 -0.43986,0.0146 -0.51495,0.25916 -0.49141,1.60076 -0.93429,5.93687 -1.97028,12.53312 l -0.51315,3.26728 1.14752,1.04391 c 0.74949,0.68182 1.54865,0.89822 2.25497,1.05425 2.04092,0.45086 3.11266,1.02495 2.52595,1.60884 -0.13653,0.13588 -0.99871,0.33284 -1.91729,0.43637 -1.07442,0.12111 -2.22285,0.57821 -3.21976,1.28155 -1.49235,1.05289 -1.69532,1.09545 -5.49105,1.15154 -2.16777,0.032 -4.57641,-0.056 -5.35252,-0.19572 z m 20.05838,-278.600045 c -2.19635,-1.821168 -3.22876,-2.313686 -3.99281,-1.904782 -0.77497,0.414753 -0.95144,1.233864 -0.34638,1.60781 0.70512,0.435791 4.74201,1.482223 5.04474,1.307686 0.16655,-0.09602 -0.15095,-0.550844 -0.70555,-1.010714 z"
           id="path3"
           sodipodi:nodetypes="sssssssssscssssscssssssssscsssssssscccssscsssssssssscssssscssssssssssscscscsscsssssssssssscsssssssscssssssssssssssssssssscssscsssssssssssssssssssssscssssssssssssssssssssssssssssssssssssssssscssssscssssssssssscsscssssssssssssccscsssssscssssssccssssssscsscssssssssssssssssssssssssssssssssssscssssssssssssssssscssssssssssssssscsssssssssscsssssssssssss" /></g><path
         style="font-size:67.2008px;line-height:1;font-family:OPTIMercenaryFive;-inkscape-font-specification:OPTIMercenaryFive;letter-spacing:0px;stroke-width:2.29094;stroke-linecap:round;stroke-linejoin:round"
         d="m 169.35067,129.13417 h 4.97286 V 82.76562 c 0,-4.569654 -2.08323,-6.451277 -7.39209,-6.451277 -5.57766,0 -7.52649,1.747221 -7.52649,6.585678 v 46.234149 h 4.97286 v -26.20831 h 4.97286 z m 0,-48.586176 V 98.75941 h -4.97286 V 80.547994 Z m 20.29464,48.586176 h 4.97286 V 82.76562 c 0,-4.569654 -2.08322,-6.451277 -7.39209,-6.451277 -5.57766,0 -7.52648,1.747221 -7.52648,6.585678 v 46.234149 h 4.97285 V 80.547994 h 4.97286 z m 20.29465,0 h 4.97286 V 82.76562 c 0,-4.569654 -2.08323,-6.451277 -7.39209,-6.451277 -5.57767,0 -7.52649,1.747221 -7.52649,6.585678 v 46.234149 h 4.97286 v -26.20831 h 4.97286 z m 0,-48.586176 V 98.75941 H 204.9671 V 80.547994 Z m 15.85939,-3.830446 h -5.51047 v 52.416622 h 4.97286 v -26.20831 h 0.53761 c 7.99689,0 9.40811,-1.14241 9.40811,-8.064096 v -10.08012 c 0,-6.921682 -1.41122,-8.064096 -9.40811,-8.064096 z M 225.26174,98.75941 V 80.883998 h 4.97286 V 98.75941 Z m 29.43401,24.19229 V 82.631218 c 0,-4.435252 -2.15042,-6.316875 -7.32488,-6.316875 -5.57767,0 -7.5937,1.881623 -7.5937,6.585678 v 39.514069 c 0,5.37606 1.81443,7.12329 7.32489,7.12329 5.64487,0 7.59369,-1.74723 7.59369,-6.58568 z m -9.94572,-42.403706 h 4.97286 v 44.755736 h -4.97286 z m 20.29465,-3.830446 h -4.97286 v 52.416622 h 11.69294 v -4.16645 h -6.72008 z m 14.71697,52.416622 V 76.717548 h -4.97286 v 52.416622 z m 14.44812,0 5.91367,-52.416622 h -5.24166 l -1.88162,19.152228 c -0.67201,7.526484 -0.94081,16.867404 -0.94081,16.867404 h -0.26881 c 0,0 0.0672,-3.96485 -1.20961,-16.867404 l -1.81442,-19.152228 h -5.24167 l 6.11528,52.416622 z m 15.18734,-52.416622 h -5.51047 v 52.416622 h 4.97286 v -26.20831 h 4.97286 v 26.20831 h 4.97286 v -23.65468 c 0,-2.48643 -0.80641,-3.62884 -3.09124,-4.56965 2.28483,-0.87362 3.02404,-1.948828 3.09124,-4.704061 V 84.781644 c 0,-6.921682 -1.41122,-8.064096 -9.40811,-8.064096 z M 308.8595,98.75941 V 80.883998 h 4.97286 V 98.75941 Z m 27.01473,-17.875412 v -4.16645 h -11.69294 v 52.416622 h 11.69294 v -4.16645 h -6.72008 v -22.04186 h 6.72008 v -4.16645 h -6.72008 V 80.883998 Z"
         id="text1"
         aria-label="ANAPOLIVRE" /></g></g></svg>
